<svg xmlns="http://www.w3.org/2000/svg" viewBox="0 0 120 120">
  <defs>
    <linearGradient id="blueIcon" x1="0%" y1="0%" x2="100%" y2="100%">
      <stop offset="0%" style="stop-color:#0ea5e9;stop-opacity:1" />
      <stop offset="100%" style="stop-color:#0284c7;stop-opacity:1" />
    </linearGradient>
    <linearGradient id="orangeIcon" x1="0%" y1="0%" x2="100%" y2="100%">
      <stop offset="0%" style="stop-color:#f97316;stop-opacity:1" />
      <stop offset="100%" style="stop-color:#ea580c;stop-opacity:1" />
    </linearGradient>
    <filter id="shadow">
      <feDropShadow dx="0" dy="2" stdDeviation="3" flood-opacity="0.3"/>
    </filter>
  </defs>
  
  <!-- Background circle -->
  <circle cx="60" cy="60" r="55" fill="white" filter="url(#shadow)"/>
  
  <!-- Shield -->
  <g transform="translate(60, 60)">
    <path d="M 0,-35 L 25,-45 L 25,-12 Q 25,20 0,30 Q -25,20 -25,-12 L -25,-45 Z" 
          fill="url(#orangeIcon)"/>
    
    <!-- Gear -->
    <g transform="translate(0, -7)">
      <circle cx="0" cy="0" r="16" fill="url(#blueIcon)"/>
      <!-- Gear teeth -->
      <rect x="-2" y="-20" width="4" height="6" fill="#0ea5e9" rx="1"/>
      <rect x="-2" y="14" width="4" height="6" fill="#0ea5e9" rx="1"/>
      <rect x="-20" y="-2" width="6" height="4" fill="#0ea5e9" rx="1"/>
      <rect x="14" y="-2" width="6" height="4" fill="#0ea5e9" rx="1"/>
      <g transform="rotate(45)">
        <rect x="-2" y="-20" width="4" height="6" fill="#0ea5e9" rx="1"/>
        <rect x="-2" y="14" width="4" height="6" fill="#0ea5e9" rx="1"/>
        <rect x="-20" y="-2" width="6" height="4" fill="#0ea5e9" rx="1"/>
        <rect x="14" y="-2" width="6" height="4" fill="#0ea5e9" rx="1"/>
      </g>
      <circle cx="0" cy="0" r="7" fill="white"/>
      <circle cx="0" cy="0" r="3.5" fill="#0284c7"/>
    </g>
    
    <!-- Checkmark -->
    <path d="M -8,3 L -3,10 L 10,-7" 
          fill="none" stroke="white" stroke-width="3.5" 
          stroke-linecap="round" stroke-linejoin="round"/>
  </g>
</svg>